<svg width="30" height="30" viewBox="0 0 30 30" fill="none" xmlns="http://www.w3.org/2000/svg">
<circle cx="15" cy="15" r="15" fill="white"/>
<path d="M21.4112 9.17248C20.1976 8.61685 18.9164 8.22267 17.6003 8C17.4202 8.32194 17.2573 8.65318 17.1121 8.99232C15.7103 8.78107 14.2847 8.78107 12.8828 8.99232C12.7376 8.65321 12.5746 8.32198 12.3946 8C11.0777 8.22455 9.79565 8.61966 8.5808 9.17538C6.16901 12.7437 5.51521 16.2233 5.84211 19.6536C7.25452 20.6971 8.8354 21.4908 10.516 22C10.8945 21.491 11.2293 20.9511 11.5171 20.3858C10.9706 20.1817 10.4431 19.9299 9.9407 19.6332C10.0729 19.5374 10.2022 19.4386 10.3272 19.3427C11.7889 20.0301 13.3843 20.3865 14.9997 20.3865C16.615 20.3865 18.2104 20.0301 19.6721 19.3427C19.7985 19.4458 19.9278 19.5446 20.0586 19.6332C19.5553 19.9304 19.0268 20.1827 18.4793 20.3873C18.7667 20.9523 19.1016 21.4918 19.4803 22C21.1624 21.4928 22.7445 20.6996 24.1572 19.655C24.5407 15.677 23.5019 12.2293 21.4112 9.17248ZM11.9312 17.544C11.0202 17.544 10.2676 16.7173 10.2676 15.7003C10.2676 14.6833 10.994 13.8493 11.9283 13.8493C12.8625 13.8493 13.6092 14.6833 13.5933 15.7003C13.5773 16.7173 12.8595 17.544 11.9312 17.544ZM18.0681 17.544C17.1557 17.544 16.406 16.7173 16.406 15.7003C16.406 14.6833 17.1325 13.8493 18.0681 13.8493C19.0038 13.8493 19.7448 14.6833 19.7288 15.7003C19.7128 16.7173 18.9965 17.544 18.0681 17.544Z" fill="black"/>
</svg>
