<svg width="1302" height="462" viewBox="0 0 1302 462" fill="none" xmlns="http://www.w3.org/2000/svg">
<g filter="url(#filter0_bd_329_186)">
<path d="M1006 1H176C79.3502 1 1 79.3502 1 176C1 272.65 79.3502 351 176 351H1006C1102.65 351 1181 272.65 1181 176C1181 79.3502 1102.65 1 1006 1Z" fill="#0080FF" fill-opacity="0.3" shape-rendering="crispEdges"/>
<path d="M1006 0.5H176C79.074 0.5 0.5 79.074 0.5 176C0.5 272.926 79.074 351.5 176 351.5H1006C1102.93 351.5 1181.5 272.926 1181.5 176C1181.5 79.074 1102.93 0.5 1006 0.5Z" stroke="url(#paint0_linear_329_186)" shape-rendering="crispEdges"/>
</g>
<defs>
<filter id="filter0_bd_329_186" x="-30" y="-30" width="1332" height="492" filterUnits="userSpaceOnUse" color-interpolation-filters="sRGB">
<feFlood flood-opacity="0" result="BackgroundImageFix"/>
<feGaussianBlur in="BackgroundImageFix" stdDeviation="15"/>
<feComposite in2="SourceAlpha" operator="in" result="effect1_backgroundBlur_329_186"/>
<feColorMatrix in="SourceAlpha" type="matrix" values="0 0 0 0 0 0 0 0 0 0 0 0 0 0 0 0 0 0 127 0" result="hardAlpha"/>
<feOffset dx="70" dy="60"/>
<feGaussianBlur stdDeviation="25"/>
<feComposite in2="hardAlpha" operator="out"/>
<feColorMatrix type="matrix" values="0 0 0 0 0 0 0 0 0 0 0 0 0 0 0 0 0 0 0.25 0"/>
<feBlend mode="normal" in2="effect1_backgroundBlur_329_186" result="effect2_dropShadow_329_186"/>
<feBlend mode="normal" in="SourceGraphic" in2="effect2_dropShadow_329_186" result="shape"/>
</filter>
<linearGradient id="paint0_linear_329_186" x1="1181" y1="1" x2="1" y2="1" gradientUnits="userSpaceOnUse">
<stop/>
<stop offset="1" stop-color="#00AAFF"/>
</linearGradient>
</defs>
</svg>
