<svg width="70" height="70" viewBox="0 0 70 70" fill="none" xmlns="http://www.w3.org/2000/svg">
<g clip-path="url(#clip0_29_49)">
<mask id="mask0_29_49" style="mask-type:luminance" maskUnits="userSpaceOnUse" x="0" y="0" width="70" height="70">
<path d="M0 0H70V70H0V0Z" fill="white"/>
</mask>
<g mask="url(#mask0_29_49)">
<path d="M67.7525 23.7225C67.3477 19.7915 65.5051 16.1486 62.5783 13.4933C59.6517 10.8316 55.8377 9.35689 51.8817 9.3575H18.1167C14.1609 9.35709 10.3472 10.8318 7.42083 13.4933C4.49391 16.1488 2.65123 19.7921 2.24667 23.7233C2.24667 23.7233 0 43.0033 0 47.7292C0 51.1558 1.32833 54.3775 3.73917 56.8025C4.92184 57.9995 6.33102 58.9491 7.88453 59.5958C9.43804 60.2425 11.1048 60.5734 12.7875 60.5692C17.32 60.5692 19.7075 58.1692 21.4508 56.415L25.9383 51.9025C26.2217 51.6151 26.5594 51.3869 26.9318 51.2312C27.3042 51.0756 27.7039 50.9956 28.1075 50.9958H41.8917C42.2956 50.9953 42.6956 51.0751 43.0683 51.2308C43.441 51.3865 43.779 51.6148 44.0625 51.9025L48.55 56.4167C50.2942 58.17 52.6817 60.5717 57.2133 60.5717C60.6317 60.5717 63.8458 59.2333 66.2617 56.8042C67.4516 55.6125 68.3944 54.1975 69.036 52.6404C69.6775 51.0834 70.0051 49.4149 70 47.7308C70 42.9867 67.7525 23.725 67.7525 23.725L67.7533 23.7233L67.7525 23.7225ZM61.6275 52.1942C61.0507 52.7788 60.3632 53.2426 59.6052 53.5587C58.8471 53.8747 58.0338 54.0367 57.2125 54.035C55.5458 54.035 54.7192 53.3517 53.1825 51.8075L48.6958 47.295C47.8066 46.3946 46.747 45.6803 45.5788 45.1939C44.4105 44.7074 43.1571 44.4585 41.8917 44.4617H28.1058C26.8405 44.4587 25.5873 44.7077 24.4192 45.1941C23.2512 45.6806 22.1917 46.3948 21.3025 47.295L16.815 51.8075C15.2792 53.3517 14.5267 54.035 12.7858 54.035C11.0442 54.035 9.55083 53.3808 8.37 52.1942C7.78472 51.6076 7.3211 50.9112 7.00576 50.145C6.69043 49.3788 6.52959 48.5578 6.5325 47.7292C6.5325 44.3483 8.74167 24.4275 8.7425 24.4142C8.97913 22.0776 10.0725 19.9115 11.8117 18.3333C13.5362 16.7634 15.7845 15.8933 18.1167 15.8933H51.8808C54.2133 15.8932 56.4618 16.7632 58.1867 18.3333C59.9253 19.912 61.0177 22.0785 61.2533 24.415C61.2558 24.4292 63.465 44.0983 63.465 47.73C63.4616 49.4017 62.8017 51.0043 61.6275 52.1942Z" fill="url(#paint0_linear_29_49)"/>
<path d="M28.01 23.1792L23.39 27.7992L25.2142 29.6233L29.8342 25.0025L28.01 23.1792Z" fill="url(#paint1_linear_29_49)"/>
<path d="M20.4708 30.7183L15.85 35.3383L17.6741 37.1625L22.295 32.5417L20.47 30.7183H20.4708Z" fill="url(#paint2_linear_29_49)"/>
<path d="M25.2133 30.715L23.39 32.5392L28.01 37.1592L29.8342 35.3358L25.2133 30.715Z" fill="url(#paint3_linear_29_49)"/>
<path d="M17.675 23.1775L15.8517 25.0017L20.4717 29.6225L22.2959 27.7975L17.6759 23.1775H17.675Z" fill="url(#paint4_linear_29_49)"/>
<path d="M47.1566 18.9917C40.9833 18.9917 35.9791 23.995 35.9791 30.1683C35.9791 36.3408 40.9833 41.345 47.1566 41.345C53.3291 41.345 58.3333 36.3408 58.3333 30.1683C58.3333 23.995 53.3291 18.9908 47.1566 18.9908V18.9917ZM41.9883 23.1767L46.6083 27.7967L44.785 29.6208L40.1641 25L41.9883 23.1767ZM41.9883 37.16L40.1641 35.3358L44.7841 30.7158L46.6083 32.54L41.9883 37.16ZM52.3233 37.16L47.7033 32.54L49.5275 30.7158L54.1475 35.3358L52.3233 37.16ZM49.5275 29.6208L47.7033 27.7967L52.3233 23.1767L54.1475 25.0008L49.5275 29.6208Z" fill="url(#paint5_linear_29_49)"/>
<path style="mix-blend-mode:overlay" opacity="0.6" d="M67.7525 23.7225C67.3477 19.7915 65.5051 16.1486 62.5783 13.4933C59.6517 10.8316 55.8377 9.35689 51.8817 9.3575H18.1167C14.1609 9.35709 10.3472 10.8318 7.42083 13.4933C4.49391 16.1488 2.65123 19.7921 2.24667 23.7233C2.24667 23.7233 0 43.0033 0 47.7292C0 51.1558 1.32833 54.3775 3.73917 56.8025C4.92184 57.9995 6.33102 58.9491 7.88453 59.5958C9.43804 60.2425 11.1048 60.5734 12.7875 60.5692C17.32 60.5692 19.7075 58.1692 21.4508 56.415L25.9383 51.9025C26.2217 51.6151 26.5594 51.3869 26.9318 51.2312C27.3042 51.0756 27.7039 50.9956 28.1075 50.9958H41.8917C42.2956 50.9953 42.6956 51.0751 43.0683 51.2308C43.441 51.3865 43.779 51.6148 44.0625 51.9025L48.55 56.4167C50.2942 58.17 52.6817 60.5717 57.2133 60.5717C60.6317 60.5717 63.8458 59.2333 66.2617 56.8042C67.4516 55.6125 68.3944 54.1975 69.036 52.6404C69.6775 51.0834 70.0051 49.4149 70 47.7308C70 42.9867 67.7525 23.725 67.7525 23.725L67.7533 23.7233L67.7525 23.7225ZM65.2858 55.8308C64.2308 56.899 62.9736 57.7465 61.5877 58.3238C60.2017 58.9011 58.7147 59.1967 57.2133 59.1933C53.2525 59.1933 51.1858 57.115 49.5258 55.445L45.0383 50.9325C44.6273 50.5158 44.1373 50.1851 43.597 49.9597C43.0568 49.7344 42.477 49.6189 41.8917 49.62H28.1083C26.92 49.62 25.8025 50.0867 24.9625 50.9325L20.475 55.445C18.8142 57.115 16.7475 59.1942 12.7875 59.1942C9.7375 59.1942 6.87083 58 4.71417 55.8325C3.65146 54.7682 2.80949 53.5045 2.23659 52.1139C1.6637 50.7233 1.37118 49.2332 1.37583 47.7292C1.37583 43.1375 3.59083 24.0742 3.61417 23.8817C3.98185 20.2819 5.66704 16.9451 8.34583 14.5125C11.0191 12.0804 14.5034 10.7325 18.1175 10.7325H51.8833C55.5 10.7325 58.9717 12.075 61.6558 14.5125C64.3312 16.9407 66.0159 20.2711 66.3867 23.865C66.4108 24.0733 68.6267 43.1183 68.6267 47.7283C68.6313 49.2324 68.3387 50.7226 67.7657 52.1132C67.1926 53.5038 66.3504 54.7675 65.2875 55.8317L65.2858 55.8308Z" fill="url(#paint6_linear_29_49)"/>
<path opacity="0.38" d="M66.7267 23.8283C66.3472 20.1502 64.6231 16.7417 61.8851 14.2567C59.1484 11.7669 55.5815 10.3873 51.8817 10.3875H18.1167C14.4142 10.3875 10.8617 11.7625 8.11422 14.2567C5.37415 16.7458 3.6497 20.1591 3.27172 23.8417C3.18005 24.6283 1.03088 43.1625 1.03088 47.7275C1.03088 50.8792 2.25172 53.8442 4.47005 56.0733C5.55695 57.1738 6.85214 58.0469 8.28004 58.6415C9.70794 59.2361 11.24 59.5404 12.7867 59.5367C16.8901 59.5367 19.0117 57.4017 20.7184 55.6867L25.2051 51.1733C25.5841 50.7889 26.0359 50.4839 26.5341 50.276C27.0323 50.0681 27.5669 49.9615 28.1067 49.9625H41.8917C42.9867 49.9625 44.0176 50.3933 44.7942 51.1733L49.2826 55.6867C50.9876 57.4017 53.1101 59.5367 57.2134 59.5367C60.3551 59.5367 63.3084 58.3067 65.5301 56.0733C66.6245 54.9772 67.4917 53.6756 68.0817 52.2434C68.6717 50.8112 68.9731 49.2765 68.9684 47.7275C68.9684 43.2883 66.9551 25.8033 66.7267 23.8283ZM65.2859 55.8308C64.2308 56.8989 62.9736 57.7462 61.5876 58.3233C60.2017 58.9005 58.7147 59.1959 57.2134 59.1925C53.2526 59.1925 51.1859 57.1142 49.5259 55.4442L45.0384 50.9308C44.6272 50.5143 44.1372 50.1838 43.597 49.9586C43.0567 49.7334 42.477 49.618 41.8917 49.6192H28.1067C26.9192 49.6192 25.8017 50.0858 24.9609 50.9308L20.4742 55.4433C18.8134 57.1133 16.7467 59.1933 12.7867 59.1933C9.73672 59.1933 6.87005 57.9983 4.71338 55.8308C3.65068 54.7666 2.8087 53.5028 2.23581 52.1122C1.66292 50.7216 1.3704 49.2315 1.37505 47.7275C1.37505 43.1783 3.52172 24.6667 3.61255 23.8808C3.98178 20.2809 5.66737 16.9442 8.34588 14.5108C11.019 12.0789 14.5029 10.7312 18.1167 10.7308H51.8817C55.4962 10.7303 58.9809 12.0781 61.6542 14.5108C64.3294 16.9391 66.014 20.2695 66.3851 23.8633C66.4767 24.6525 68.6242 43.1975 68.6242 47.7267C68.629 49.2307 68.3365 50.7208 67.7636 52.1114C67.1907 53.502 66.3487 54.7666 65.2859 55.8308Z" fill="url(#paint7_linear_29_49)"/>
<path style="mix-blend-mode:overlay" opacity="0.8" d="M67.7525 23.7225C67.3477 19.7915 65.5051 16.1486 62.5783 13.4933C59.6517 10.8316 55.8377 9.35689 51.8817 9.3575H18.1167C14.1609 9.35709 10.3472 10.8318 7.42083 13.4933C4.49391 16.1488 2.65123 19.7921 2.24667 23.7233C2.24667 23.7233 2.12583 24.7567 1.94083 26.4025C1.3275 31.8683 0 44.0967 0 47.7292C0 51.1558 1.32833 54.3775 3.73917 56.8025C4.92184 57.9995 6.33102 58.9491 7.88453 59.5958C9.43804 60.2425 11.1048 60.5734 12.7875 60.5692C17.32 60.5692 19.7075 58.1692 21.4508 56.415L25.9383 51.9025C26.2217 51.6151 26.5594 51.3869 26.9318 51.2312C27.3042 51.0756 27.7039 50.9956 28.1075 50.9958H41.8917C42.2956 50.9953 42.6956 51.0751 43.0683 51.2308C43.441 51.3865 43.779 51.6148 44.0625 51.9025L48.55 56.4167C50.2942 58.17 52.6817 60.5717 57.2133 60.5717C60.6317 60.5717 63.8458 59.2333 66.2617 56.8042C67.4516 55.6125 68.3944 54.1975 69.036 52.6404C69.6775 51.0834 70.0051 49.4149 70 47.7308C70 42.9867 67.7525 23.725 67.7525 23.725L67.7533 23.7233L67.7525 23.7225ZM61.6275 52.1942C61.0507 52.7788 60.3632 53.2426 59.6052 53.5587C58.8471 53.8747 58.0338 54.0367 57.2125 54.035C55.5458 54.035 54.7192 53.3517 53.1825 51.8075L48.6958 47.295C47.8066 46.3946 46.747 45.6803 45.5788 45.1939C44.4105 44.7074 43.1571 44.4585 41.8917 44.4617H28.1058C26.8405 44.4587 25.5873 44.7077 24.4192 45.1941C23.2512 45.6806 22.1917 46.3948 21.3025 47.295L16.815 51.8075C15.2792 53.3517 14.5267 54.035 12.7858 54.035C11.0442 54.035 9.55083 53.3808 8.37 52.1942C7.78472 51.6076 7.3211 50.9112 7.00576 50.145C6.69043 49.3788 6.52959 48.5578 6.5325 47.7292C6.5325 44.7542 8.2425 28.9758 8.65417 25.2192L8.74333 24.4142C8.97931 22.078 10.0717 19.9119 11.81 18.3333C13.5346 16.7634 15.7828 15.8933 18.115 15.8933H51.8792C54.2116 15.8932 56.4602 16.7632 58.185 18.3333C59.9236 19.912 61.016 22.0785 61.2517 24.415C61.2542 24.4292 63.4633 44.0983 63.4633 47.73C63.4599 49.4017 62.8001 51.0052 61.6258 52.195L61.6275 52.1942Z" fill="url(#paint8_radial_29_49)"/>
</g>
</g>
<defs>
<linearGradient id="paint0_linear_29_49" x1="35" y1="9.3575" x2="35" y2="63.6092" gradientUnits="userSpaceOnUse">
<stop stop-color="#00B1FF"/>
<stop offset="0.07" stop-color="#07ACFB"/>
<stop offset="0.17" stop-color="#1A9FF0"/>
<stop offset="0.29" stop-color="#3A89DE"/>
<stop offset="0.43" stop-color="#666BC6"/>
<stop offset="0.58" stop-color="#A045A6"/>
<stop offset="0.74" stop-color="#E41780"/>
<stop offset="0.77" stop-color="#F40D78"/>
<stop offset="0.91" stop-color="#FF0572"/>
<stop offset="1" stop-color="#F7F774"/>
</linearGradient>
<linearGradient id="paint1_linear_29_49" x1="26.6133" y1="9.34917" x2="26.6133" y2="63.6025" gradientUnits="userSpaceOnUse">
<stop stop-color="#00B1FF"/>
<stop offset="0.07" stop-color="#07ACFB"/>
<stop offset="0.17" stop-color="#1A9FF0"/>
<stop offset="0.29" stop-color="#3A89DE"/>
<stop offset="0.43" stop-color="#666BC6"/>
<stop offset="0.58" stop-color="#A045A6"/>
<stop offset="0.74" stop-color="#E41780"/>
<stop offset="0.77" stop-color="#F40D78"/>
<stop offset="0.91" stop-color="#FF0572"/>
<stop offset="1" stop-color="#F7F774"/>
</linearGradient>
<linearGradient id="paint2_linear_29_49" x1="19.075" y1="9.34999" x2="19.075" y2="63.6025" gradientUnits="userSpaceOnUse">
<stop stop-color="#00B1FF"/>
<stop offset="0.07" stop-color="#07ACFB"/>
<stop offset="0.17" stop-color="#1A9FF0"/>
<stop offset="0.29" stop-color="#3A89DE"/>
<stop offset="0.43" stop-color="#666BC6"/>
<stop offset="0.58" stop-color="#A045A6"/>
<stop offset="0.74" stop-color="#E41780"/>
<stop offset="0.77" stop-color="#F40D78"/>
<stop offset="0.91" stop-color="#FF0572"/>
<stop offset="1" stop-color="#F7F774"/>
</linearGradient>
<linearGradient id="paint3_linear_29_49" x1="26.6117" y1="9.34834" x2="26.6117" y2="63.6017" gradientUnits="userSpaceOnUse">
<stop stop-color="#00B1FF"/>
<stop offset="0.07" stop-color="#07ACFB"/>
<stop offset="0.17" stop-color="#1A9FF0"/>
<stop offset="0.29" stop-color="#3A89DE"/>
<stop offset="0.43" stop-color="#666BC6"/>
<stop offset="0.58" stop-color="#A045A6"/>
<stop offset="0.74" stop-color="#E41780"/>
<stop offset="0.77" stop-color="#F40D78"/>
<stop offset="0.91" stop-color="#FF0572"/>
<stop offset="1" stop-color="#F7F774"/>
</linearGradient>
<linearGradient id="paint4_linear_29_49" x1="19.0733" y1="9.34916" x2="19.0733" y2="63.6017" gradientUnits="userSpaceOnUse">
<stop stop-color="#00B1FF"/>
<stop offset="0.07" stop-color="#07ACFB"/>
<stop offset="0.17" stop-color="#1A9FF0"/>
<stop offset="0.29" stop-color="#3A89DE"/>
<stop offset="0.43" stop-color="#666BC6"/>
<stop offset="0.58" stop-color="#A045A6"/>
<stop offset="0.74" stop-color="#E41780"/>
<stop offset="0.77" stop-color="#F40D78"/>
<stop offset="0.91" stop-color="#FF0572"/>
<stop offset="1" stop-color="#F7F774"/>
</linearGradient>
<linearGradient id="paint5_linear_29_49" x1="47.1566" y1="9.34916" x2="47.1566" y2="63.6017" gradientUnits="userSpaceOnUse">
<stop stop-color="#00B1FF"/>
<stop offset="0.07" stop-color="#07ACFB"/>
<stop offset="0.17" stop-color="#1A9FF0"/>
<stop offset="0.29" stop-color="#3A89DE"/>
<stop offset="0.43" stop-color="#666BC6"/>
<stop offset="0.58" stop-color="#A045A6"/>
<stop offset="0.74" stop-color="#E41780"/>
<stop offset="0.77" stop-color="#F40D78"/>
<stop offset="0.91" stop-color="#FF0572"/>
<stop offset="1" stop-color="#F7F774"/>
</linearGradient>
<linearGradient id="paint6_linear_29_49" x1="35" y1="63.2467" x2="35" y2="38.015" gradientUnits="userSpaceOnUse">
<stop/>
<stop offset="1" stop-opacity="0"/>
</linearGradient>
<linearGradient id="paint7_linear_29_49" x1="35.0001" y1="64.1558" x2="35.0001" y2="48.01" gradientUnits="userSpaceOnUse">
<stop stop-color="white"/>
<stop offset="1" stop-color="white" stop-opacity="0"/>
</linearGradient>
<radialGradient id="paint8_radial_29_49" cx="0" cy="0" r="1" gradientUnits="userSpaceOnUse" gradientTransform="translate(10.7458 12.9292) scale(23.3623 23.3622)">
<stop stop-color="white"/>
<stop offset="1" stop-color="white" stop-opacity="0"/>
</radialGradient>
<clipPath id="clip0_29_49">
<rect width="70" height="70" fill="white"/>
</clipPath>
</defs>
</svg>
