<svg width="44" height="35" viewBox="0 0 44 35" fill="none" xmlns="http://www.w3.org/2000/svg">
<path d="M30.7307 0H12.9527C5.79858 0 0 5.79858 0 12.9527C0 20.1068 5.79858 25.9053 12.9527 25.9053H17.807V35L22.8236 25.9053H30.7307C37.8848 25.9053 43.6834 20.1068 43.6834 12.9527C43.6834 5.79858 37.8848 0 30.7307 0Z" fill="#00AAFF"/>
<path d="M9.66133 11.2344C9.49043 10.3213 8.73359 9.81348 7.83516 9.81836C6.61445 9.81348 5.71113 10.751 5.70625 12.4648C5.71113 14.1885 6.61934 15.1162 7.83516 15.1113C8.72383 15.1162 9.47578 14.6182 9.66133 13.7148L10.7453 13.7246C10.5207 15.1211 9.38301 16.0977 7.82539 16.0977C5.98457 16.0977 4.6418 14.7256 4.6418 12.4648C4.6418 10.2041 5.99434 8.83203 7.82539 8.83203C9.31953 8.83203 10.5061 9.71582 10.7453 11.2344H9.66133ZM13.9656 16.1074C12.4617 16.1074 11.4803 15.0137 11.4852 13.373C11.4803 11.7227 12.4617 10.6289 13.9656 10.6289C15.4598 10.6289 16.4363 11.7227 16.4363 13.373C16.4363 15.0137 15.4598 16.1074 13.9656 16.1074ZM12.5301 13.373C12.5301 14.3838 12.9939 15.2383 13.9656 15.2383C14.9227 15.2383 15.3816 14.3838 15.3816 13.373C15.3816 12.3574 14.9227 11.4932 13.9656 11.4883C12.9939 11.4932 12.5301 12.3574 12.5301 13.373ZM17.3617 17.9922V10.6973H18.3773V11.5566H18.4652C18.6508 11.2246 19.0072 10.6289 19.9887 10.6289C21.2729 10.6289 22.2152 11.6348 22.2152 13.3633C22.2152 15.0723 21.2826 16.1025 19.9984 16.1074C19.0365 16.1025 18.6557 15.5166 18.4652 15.1699H18.4066V17.9922H17.3617ZM18.3871 13.3438C18.3871 14.457 18.8754 15.2139 19.7641 15.2188C20.682 15.2139 21.1605 14.4082 21.1605 13.3438C21.1605 12.2988 20.6967 11.5127 19.7641 11.5176C18.8656 11.5127 18.3871 12.2402 18.3871 13.3438ZM23.1504 16V10.6973H24.1953V16H23.1504ZM23.0137 9.26172C23.0186 8.91992 23.3164 8.64648 23.6777 8.64648C24.0342 8.64648 24.332 8.91992 24.332 9.26172C24.332 9.60352 24.0342 9.88184 23.6777 9.87695C23.3164 9.88184 23.0186 9.60352 23.0137 9.26172ZM27.65 16.1074C26.0875 16.1074 25.1256 15.0283 25.1305 13.3828C25.1256 11.752 26.1021 10.6289 27.5816 10.6289C28.7877 10.6289 29.9352 11.376 29.9352 13.2949V13.666H26.1656C26.1949 14.6768 26.7906 15.248 27.6598 15.248C28.2506 15.248 28.6363 14.9941 28.8121 14.6719H29.8668C29.6324 15.5312 28.817 16.1074 27.65 16.1074ZM26.1705 12.8848H28.9098C28.9098 12.0791 28.3873 11.4834 27.5914 11.4883C26.7564 11.4834 26.2145 12.1377 26.1705 12.8848ZM32.8527 16.1074C31.5734 16.1025 30.6359 15.0723 30.6359 13.3633C30.6359 11.6348 31.5881 10.6289 32.8625 10.6289C33.8488 10.6289 34.2053 11.2246 34.3957 11.5566H34.4445V8.92969H35.4895V16H34.4738V15.1699H34.3957C34.2004 15.5166 33.8195 16.1025 32.8527 16.1074ZM31.7004 13.3438C31.6955 14.4082 32.174 15.2139 33.0871 15.2188C33.9758 15.2139 34.4738 14.457 34.4738 13.3438C34.4738 12.2402 33.9855 11.5127 33.0871 11.5176C32.1643 11.5127 31.6955 12.2988 31.7004 13.3438ZM38.0457 8.92969L37.9578 13.959H36.991L36.9031 8.92969H38.0457ZM36.7859 15.375C36.7811 14.9941 37.0984 14.6816 37.4793 14.6816C37.8553 14.6816 38.1678 14.9941 38.1727 15.375C38.1678 15.7559 37.8553 16.0635 37.4793 16.0684C37.0984 16.0635 36.7811 15.7559 36.7859 15.375Z" fill="white"/>
</svg>
