<svg width="30" height="30" viewBox="0 0 30 30" fill="none" xmlns="http://www.w3.org/2000/svg">
<g clip-path="url(#clip0_152_116)">
<path d="M15 30C23.2843 30 30 23.2843 30 15C30 6.71573 23.2843 0 15 0C6.71573 0 0 6.71573 0 15C0 23.2843 6.71573 30 15 30Z" fill="white"/>
<path d="M16.2704 14.9999C16.2704 18.1099 13.7704 20.6199 10.6904 20.6199C7.61035 20.6199 5.11035 18.0999 5.11035 14.9999C5.11035 11.8999 7.61035 9.37988 10.6904 9.37988C13.7704 9.37988 16.2704 11.8999 16.2704 14.9999Z" fill="black"/>
<path d="M22.3905 15C22.3905 17.92 21.1405 20.29 19.6005 20.29C18.0605 20.29 16.8105 17.92 16.8105 15C16.8105 12.08 18.0605 9.70996 19.6005 9.70996C21.1405 9.70996 22.3905 12.08 22.3905 15Z" fill="black"/>
<path d="M24.9004 14.9998C24.9004 17.6198 24.4604 19.7398 23.9204 19.7398C23.3804 19.7398 22.9404 17.6198 22.9404 14.9998C22.9404 12.3798 23.3804 10.2598 23.9204 10.2598C24.4604 10.2598 24.9004 12.3798 24.9004 14.9998Z" fill="black"/>
</g>
<defs>
<clipPath id="clip0_152_116">
<rect width="30" height="30" fill="white"/>
</clipPath>
</defs>
</svg>
