<svg width="30" height="30" viewBox="0 0 30 30" fill="none" xmlns="http://www.w3.org/2000/svg">
<g clip-path="url(#clip0_152_112)">
<path d="M15 30C23.2843 30 30 23.2843 30 15C30 6.71573 23.2843 0 15 0C6.71573 0 0 6.71573 0 15C0 23.2843 6.71573 30 15 30Z" fill="white"/>
<path d="M10.1897 16.2699L6.52965 15.0799C6.52965 15.0799 6.08965 14.8999 6.22965 14.4999C6.25965 14.4199 6.31965 14.3499 6.48965 14.2199C7.29965 13.6499 21.4997 8.5499 21.4997 8.5499C21.4997 8.5499 21.8997 8.4099 22.1397 8.4999C22.2497 8.5399 22.3197 8.5899 22.3797 8.7599C22.3997 8.8199 22.4097 8.9499 22.4097 9.0799C22.4097 9.1699 22.3997 9.2599 22.3897 9.3999C22.2997 10.7999 19.7197 21.2099 19.7197 21.2099C19.7197 21.2099 19.5697 21.8199 19.0097 21.8399C18.8097 21.8399 18.5597 21.8099 18.2697 21.5499C17.1797 20.6099 13.4197 18.0799 12.5897 17.5299C12.5397 17.4999 12.5297 17.4599 12.5197 17.4199C12.5097 17.3599 12.5697 17.2899 12.5697 17.2899C12.5697 17.2899 19.1197 11.4599 19.2997 10.8499C19.3097 10.7999 19.2597 10.7799 19.1897 10.7999C18.7497 10.9599 11.2097 15.7199 10.3797 16.2499C10.3297 16.2799 10.1897 16.2599 10.1897 16.2599V16.2699Z" fill="black"/>
</g>
<defs>
<clipPath id="clip0_152_112">
<rect width="30" height="30" fill="white"/>
</clipPath>
</defs>
</svg>
