<svg width="30" height="30" viewBox="0 0 30 30" fill="none" xmlns="http://www.w3.org/2000/svg">
<g clip-path="url(#clip0_152_123)">
<path d="M15 30C23.2843 30 30 23.2843 30 15C30 6.71573 23.2843 0 15 0C6.71573 0 0 6.71573 0 15C0 23.2843 6.71573 30 15 30Z" fill="white"/>
<path d="M16.4596 13.7997L22.1596 7.17969H20.8096L15.8596 12.9297L11.9096 7.17969H7.34961L13.3196 15.8697L7.34961 22.8097H8.69961L13.9196 16.7397L18.0896 22.8097H22.6496L16.4596 13.7897V13.7997ZM14.6096 15.9497L13.9996 15.0797L9.17961 8.18969H11.2496L15.1396 13.7497L15.7496 14.6197L20.7996 21.8497H18.7296L14.6096 15.9497Z" fill="black"/>
</g>
<defs>
<clipPath id="clip0_152_123">
<rect width="30" height="30" fill="white"/>
</clipPath>
</defs>
</svg>
